<?xml version="1.0" encoding="UTF-8" standalone="no"?>
<!DOCTYPE svg PUBLIC "-//W3C//DTD SVG 1.1//EN" "http://www.w3.org/Graphics/SVG/1.1/DTD/svg11.dtd">
<svg width="100%" height="100%" viewBox="0 0 24 24" version="1.1" xmlns="http://www.w3.org/2000/svg" xmlns:xlink="http://www.w3.org/1999/xlink" xml:space="preserve" xmlns:serif="http://www.serif.com/" style="fill-rule:evenodd;clip-rule:evenodd;stroke-linejoin:round;stroke-miterlimit:2;">
    <g transform="matrix(1,0,0,1,-0.0354166,0.47065)">
        <g transform="matrix(0.00369932,0,0,0.00369932,1.59583,2.6947)">
            <path d="M2213.22,3532.03L2546.42,4630.12C2557.33,4679.47 2543.69,4731.05 2509.83,4768.56C2475.96,4806.07 2426.04,4824.88 2375.84,4819.05L699.376,4799.51C624.591,4790.83 566.631,4730.05 561.506,4654.94C483.274,3508.28 373.681,1536.78 323.63,372.794C320.27,294.675 375.174,226.1 452.136,212.289C1489.65,26.1 3131.34,-160.931 4196.79,-235.571C4259.89,-239.991 4319.42,-205.935 4347.6,-149.306C4636.61,431.566 4915.47,1394.33 5055.25,2006.55C5066.39,2055.36 5053.47,2106.54 5020.51,2144.22C4929.32,2248.44 4732.2,2642.1 4554.49,2828.92C4526.89,2857.94 4489.2,2875.26 4449.2,2877.28L3944.39,2975.33L5424.33,4476.37C5471.04,4517.45 5488.93,4582.32 5469.89,4641.54C5450.85,4700.76 5398.5,4743.04 5336.6,4749.19C4752.34,4807.28 3573.38,4815.6 2971.64,4792.11C2918.5,4790.03 2870.06,4761.07 2843.08,4715.24L2213.22,3532.03ZM1024.5,856.654C1071.31,1928.17 1112.84,3053.56 1183.61,4110.34L2012.67,4199.28L1623.88,2609.83C1710.83,2605.55 2035.58,2589.56 2096.16,2585.96L3067.8,4242.5C3484.01,4219.54 3930.43,4230.24 4342.63,4195.81C4342.63,4195.81 2573.44,2568.43 2636.93,2565.21L4173.03,2454.51C4290.35,2329.81 4428.12,2178.46 4497.9,2098.63C4372.06,1569.94 4188.47,998.09 3946.58,493.785C2977.15,565.362 1969.59,691.047 1024.5,856.654Z"/>
        </g>
        <g transform="matrix(0.00369932,0,0,0.00369932,1.50642,2.54792)">
            <path d="M1669.77,1196.52C1669.77,1196.52 2911.31,1241.72 2994.43,1256.63L2982.34,2034.49C2846.51,2040.67 1743.59,2121.15 1743.59,2121.15L1669.77,1196.52ZM2006.12,1473.53L2023.16,1813.04L2712.11,1760.59L2707,1499.35L2006.12,1473.53Z"/>
        </g>
    </g>
</svg>
