<?xml version="1.0" encoding="UTF-8" standalone="no"?>
<!DOCTYPE svg PUBLIC "-//W3C//DTD SVG 1.1//EN" "http://www.w3.org/Graphics/SVG/1.1/DTD/svg11.dtd">
<svg width="100%" height="100%" viewBox="0 0 24 24" version="1.1" xmlns="http://www.w3.org/2000/svg" xmlns:xlink="http://www.w3.org/1999/xlink" xml:space="preserve" xmlns:serif="http://www.serif.com/" style="fill-rule:evenodd;clip-rule:evenodd;stroke-linejoin:round;stroke-miterlimit:2;">
    <g transform="matrix(0.874344,0,0,0.874344,-3.23748,-3.81341)">
        <path d="M6.443,8.83C6.443,8.83 10.807,8.791 11.196,8.792C13.049,8.798 16.326,8.891 16.326,8.891C16.326,8.891 16.354,10.616 16.333,11.866C16.325,12.406 16.365,14.812 16.365,14.812L14.441,14.81C14.441,14.81 14.454,16.372 14.382,18.864C14.372,19.188 14.391,22.741 14.391,22.741C14.391,22.741 16.474,22.78 17.366,22.755C18.281,22.729 20.358,22.717 20.358,22.717C20.358,22.717 20.399,19.289 20.408,18.752C20.43,17.445 20.395,14.773 20.395,14.773L18.387,14.789C18.387,14.789 18.369,12.931 18.4,11.866C18.427,10.94 18.421,8.856 18.421,8.856C18.421,8.856 21.305,8.865 23.354,8.821C24.356,8.8 28.325,8.85 28.325,8.85C28.325,8.85 28.37,10.689 28.377,11.936C28.38,12.523 28.333,14.783 28.333,14.783C28.333,14.783 27.558,14.82 27.308,14.834C27.058,14.848 26.374,14.84 26.374,14.84C26.374,14.84 26.377,19.083 26.371,19.717C26.364,20.365 26.345,24.728 26.345,24.728C26.345,24.728 25.1,26.104 24.264,26.888C23.887,27.241 22.365,28.712 22.365,28.712C22.365,28.712 18.876,28.771 17.569,28.755C15.798,28.734 12.444,28.705 12.444,28.705C12.444,28.705 10.744,27.022 10.404,26.711C10.16,26.488 8.477,24.776 8.477,24.776C8.477,24.776 8.441,21.945 8.406,19.762C8.347,15.987 8.409,14.781 8.409,14.781L6.411,14.798C6.411,14.798 6.35,12.737 6.378,12.104C6.441,10.678 6.443,8.83 6.443,8.83Z"/>
    </g>
</svg>
